<?xml version="1.0" encoding="UTF-8"?>
<svg id="Layer_1" xmlns="http://www.w3.org/2000/svg" viewBox="0 0 93.56 83.18">
  <path d="M93.56,42.22c-.21-5.66-4.96-10.07-10.63-9.88-2.51.09-4.91,1.12-6.72,2.85-8-5.45-17.39-8.43-27.05-8.64l4.56-21.91,15.03,3.16c.42,3.86,3.88,6.65,7.73,6.23,3.86-.42,6.65-3.88,6.23-7.73-.42-3.86-3.88-6.65-7.73-6.23-2.22.23-4.21,1.52-5.31,3.44L52.46.05c-1.17-.26-2.34.47-2.6,1.66v.03l-5.19,24.38c-9.78.16-19.29,3.16-27.4,8.64-4.12-3.88-10.62-3.68-14.49.45-3.88,4.12-3.68,10.62.45,14.49.8.75,1.73,1.4,2.76,1.85-.07,1.03-.07,2.06,0,3.09,0,15.73,18.33,28.53,40.95,28.53s40.95-12.78,40.95-28.53c.07-1.03.07-2.06,0-3.09,3.53-1.76,5.75-5.4,5.68-9.34ZM23.32,49.26c0-3.88,3.16-7.04,7.04-7.04s7.04,3.16,7.04,7.04-3.16,7.04-7.04,7.04c-3.89-.04-7.04-3.16-7.04-7.04ZM64.12,68.85v-.28c-4.99,3.75-11.11,5.67-17.36,5.41-6.25.26-12.36-1.66-17.36-5.41-.66-.8-.54-2.01.26-2.67.7-.58,1.69-.58,2.41,0,4.23,3.09,9.38,4.66,14.61,4.42,5.24.28,10.41-1.22,14.68-4.28.77-.75,2.02-.73,2.78.03.75.77.73,2.02-.03,2.78ZM63.16,56.8h-.35l.05-.26c-3.88,0-7.04-3.16-7.04-7.04s3.16-7.04,7.04-7.04,7.04,3.16,7.04,7.04c.16,3.88-2.86,7.14-6.74,7.3Z" style="fill: #1a1a1a;"/>
</svg>